<svg width="25" height="25" viewBox="0 0 16 16" fill="none" xmlns="http://www.w3.org/2000/svg">
<g clip-path="url(#clip0_301_74)">
<path d="M15.854 12.854L11 7.99995L15.854 3.14595C15.947 3.05181 15.9992 2.9248 15.9992 2.79245C15.9992 2.66011 15.947 2.5331 15.854 2.43895L13.561 0.145954C13.5146 0.0994215 13.4595 0.0624998 13.3989 0.0373069C13.3382 0.0121139 13.2732 -0.000854492 13.2075 -0.000854492C13.1418 -0.000854492 13.0768 0.0121139 13.0161 0.0373069C12.9555 0.0624998 12.9004 0.0994215 12.854 0.145954L8 4.99995L3.146 0.145954C3.05224 0.0522186 2.92508 -0.000439073 2.7925 -0.000439073C2.65992 -0.000439073 2.53276 0.0522186 2.439 0.145954L0.146 2.43895C0.0994673 2.48531 0.0625456 2.54041 0.0373527 2.60107C0.0121597 2.66173 -0.000808716 2.72677 -0.000808716 2.79245C-0.000808716 2.85814 0.0121597 2.92318 0.0373527 2.98384C0.0625456 3.0445 0.0994673 3.09959 0.146 3.14595L5 7.99995L0.146 12.854C0.0522644 12.9477 -0.000393297 13.0749 -0.000393297 13.2075C-0.000393297 13.34 0.0522644 13.4672 0.146 13.561L2.439 15.854C2.48536 15.9005 2.54045 15.9374 2.60111 15.9626C2.66178 15.9878 2.72681 16.0008 2.7925 16.0008C2.85819 16.0008 2.92322 15.9878 2.98389 15.9626C3.04455 15.9374 3.09964 15.9005 3.146 15.854L8 11L12.854 15.854C12.9478 15.9477 13.0749 16.0003 13.2075 16.0003C13.3401 16.0003 13.4672 15.9477 13.561 15.854L15.854 13.561C15.9005 13.5146 15.9375 13.4595 15.9626 13.3988C15.9878 13.3382 16.0008 13.2731 16.0008 13.2075C16.0008 13.1418 15.9878 13.0767 15.9626 13.0161C15.9375 12.9554 15.9005 12.9003 15.854 12.854V12.854Z" fill="black"/>
</g>
<defs>
<clipPath id="clip0_301_74">
<rect width="16" height="16" fill="white"/>
</clipPath>
</defs>
</svg>
